<?xml version="1.0" standalone="no"?>
<!DOCTYPE svg PUBLIC "-//W3C//DTD SVG 20010904//EN"
 "http://www.w3.org/TR/2001/REC-SVG-20010904/DTD/svg10.dtd">
<svg version="1.0" xmlns="http://www.w3.org/2000/svg"
 width="85.000000pt" height="70.000000pt" viewBox="0 0 85.000000 70.000000"
 preserveAspectRatio="xMidYMid meet">
<metadata>
Created by potrace 1.16, written by Peter Selinger 2001-2019
</metadata>
<g transform="translate(0.000000,70.000000) scale(0.023611,-0.016018)"
fill="#000000" stroke="none">
<path d="M2096 3735 c-70 -29 -102 -57 -127 -110 -22 -47 -24 -83 -7 -137 11
-36 19 -43 91 -79 107 -54 244 -109 272 -109 23 0 35 17 35 48 0 9 -41 48 -90
87 -54 42 -89 76 -88 85 5 24 76 53 137 56 31 1 57 8 59 14 14 41 -41 113
-113 146 -63 30 -95 30 -169 -1z"/>
<path d="M1966 3382 c-8 -16 -37 -43 -63 -60 -109 -70 -164 -152 -227 -334
-31 -92 -35 -213 -10 -299 9 -29 17 -75 18 -101 1 -29 8 -54 20 -67 l19 -21
-47 16 c-85 29 -150 4 -187 -72 -24 -52 -21 -80 16 -117 l26 -25 -193 -4
c-185 -3 -195 -4 -250 -30 -67 -31 -149 -105 -185 -165 l-25 -43 -241 -2 -242
-3 237 -2 c131 -2 238 -7 238 -11 0 -4 -9 -29 -19 -57 l-19 -50 -375 0 c-207
0 -379 -3 -383 -8 -4 -4 164 -7 374 -7 l382 0 0 -50 0 -50 -335 0 c-217 0
-335 -4 -335 -10 0 -6 118 -10 335 -10 l335 0 0 -28 0 -28 444 0 445 1 10 -42
c19 -75 10 -73 423 -73 434 0 432 0 545 104 74 69 128 152 169 258 24 65 28
69 105 118 122 78 128 123 26 195 -32 22 -72 60 -88 84 -26 39 -59 131 -74
204 -3 15 -18 41 -34 59 l-28 32 -67 -18 c-60 -17 -85 -30 -74 -42 3 -2 23 4
46 13 23 9 44 14 46 12 2 -2 -7 -44 -21 -92 l-25 -89 21 -65 c31 -94 45 -288
26 -375 -22 -106 -71 -187 -136 -227 -40 -25 -75 -27 -95 -6 -18 17 -89 20
-128 5 -34 -13 -166 -19 -241 -11 -33 4 -67 2 -76 -3 -45 -26 -138 47 -159
124 -16 58 -7 166 18 224 39 86 152 176 222 176 23 0 50 5 61 10 22 12 49 61
49 90 0 13 7 20 20 20 11 0 20 -3 20 -6 0 -3 -25 -49 -54 -102 -58 -103 -190
-372 -201 -409 -6 -23 -5 -23 82 -23 48 1 105 7 126 14 21 8 55 12 76 9 l39
-5 7 43 c13 80 76 273 117 359 25 54 42 105 45 141 5 52 4 56 -26 81 -20 17
-90 45 -203 82 -243 77 -338 98 -338 74 0 -4 -5 -8 -11 -8 -5 0 -7 6 -4 13 4
6 0 4 -8 -6 -8 -10 -24 -19 -36 -20 -12 -1 -21 -5 -21 -10 0 -4 -4 -6 -9 -3
-5 4 -11 1 -13 -4 -2 -6 -13 -12 -26 -13 -12 0 -22 -5 -22 -10 0 -5 -7 -7 -15
-3 -8 3 -15 1 -15 -5 0 -13 -70 -7 -71 6 0 5 5 11 12 14 7 2 9 -1 4 -8 -5 -9
-2 -10 11 -3 23 12 179 72 216 82 18 6 29 4 32 -3 3 -7 3 2 0 19 -3 17 0 52 6
77 l12 45 33 -19 c40 -24 184 -44 246 -35 43 6 45 8 41 35 -2 16 1 38 7 48 9
18 4 22 -62 44 -40 13 -77 28 -84 34 -30 26 -98 305 -74 305 4 0 13 11 19 24
10 23 6 27 -63 75 l-74 52 -15 -29z m-293 -1156 c115 -58 187 -167 187 -281 0
-48 -23 -143 -46 -186 -26 -51 -28 -25 -3 48 61 179 9 320 -148 398 -50 25
-72 30 -163 33 -166 6 -287 -32 -408 -127 -85 -68 -169 -195 -203 -308 -6 -24
-17 -43 -22 -43 -29 0 46 175 114 266 77 101 171 166 304 211 61 20 87 23 200
20 121 -2 134 -4 188 -31z"/>
<path d="M2675 2920 c-10 -11 -27 -20 -37 -20 -24 0 -60 -19 -71 -36 -4 -8
-13 -14 -20 -14 -7 0 -12 -13 -12 -30 0 -26 4 -30 27 -30 21 0 29 -7 39 -33
l12 -33 51 13 c27 7 68 13 89 13 l38 0 -3 93 -3 92 -46 3 c-35 2 -49 -2 -64
-18z"/>
<path d="M641 2885 c2 -29 7 -45 16 -45 10 0 13 -36 13 -168 0 -165 0 -169 27
-209 14 -23 45 -52 67 -65 40 -22 50 -23 296 -26 267 -4 308 1 363 40 15 11
37 38 49 61 20 37 23 60 25 201 2 88 5 162 8 164 3 3 5 25 5 49 l0 43 -435 0
-436 0 2 -45z"/>
<path d="M2999 2097 c-30 -18 -64 -40 -77 -48 -12 -8 -25 -25 -29 -39 -13 -53
-76 -173 -128 -242 -30 -40 -55 -79 -55 -85 0 -18 129 -18 132 0 0 6 4 -28 8
-78 8 -109 36 -170 105 -234 72 -66 124 -86 225 -86 73 0 93 4 142 28 164 80
233 279 154 440 -24 51 -75 107 -136 150 -25 17 -23 17 70 15 91 -3 95 -2 98
19 4 26 -43 81 -106 123 -69 46 -159 70 -261 70 -81 0 -91 -2 -142 -33z m234
-298 c77 -21 147 -111 147 -189 0 -73 -58 -153 -132 -184 -53 -23 -97 -20
-157 10 -67 34 -103 86 -109 159 -8 93 43 168 137 201 45 16 66 17 114 3z"/>
<path d="M1004 1698 c-15 -48 -7 -163 15 -213 69 -155 233 -235 394 -191 154
42 265 203 242 353 -11 74 -10 73 -87 73 -67 0 -69 -1 -62 -22 27 -86 20 -150
-23 -206 -115 -151 -353 -71 -353 118 0 28 7 64 15 80 l16 30 -75 0 c-69 0
-75 -2 -82 -22z"/>
</g>
</svg>
